<svg data-name="Слой 1" xmlns="http://www.w3.org/2000/svg" viewBox="0 0 1099 1028">
  <defs>
    <linearGradient id="a" x1="-15.192" y1="1122.623" x2="795.376" y2="333.983"
      gradientTransform="matrix(1 0 0 -1 153.5 1238)" gradientUnits="userSpaceOnUse">
      <stop offset="0" stop-color="#30ce88" />
      <stop offset="1" stop-color="#d3f5ce" />
    </linearGradient>
  </defs>
  <path
    d="M550.229 1028a580.085 580.085 0 0 1-202.288-36.632c-65.484-24.279-124.675-58.952-176.114-103.081-51.53-44.214-93.575-98.481-124.675-161.096C15.869 664.32 0 593.015 0 515.406a478.168 478.168 0 0 1 41.497-194.832 520.66 520.66 0 0 1 115.19-164.589c48.885-47.026 107.255-85.191 173.742-113.39C397.281 14.313 471.156 0 550.229 0a571.177 571.177 0 0 1 204.752 38.08c65.94 25.217 125.04 61.168 175.475 106.83 50.436 45.662 91.474 100.44 122.124 162.97 30.82 62.871 46.42 132.728 46.42 207.44a471.708 471.708 0 0 1-40.77 191.936 529.57 529.57 0 0 1-113.455 163.737c-48.338 47.622-106.89 86.043-174.016 114.241C703.45 1013.69 629.303 1028 550.229 1028Zm0-795.769c-42.135 0-81.9 7.496-118.29 22.32-36.573 14.908-68.859 35.524-95.946 61.252a298.708 298.708 0 0 0-65.119 90.558 260.943 260.943 0 0 0 0 218.174 289.264 289.264 0 0 0 64.936 89.792c27.088 25.302 59.556 45.407 96.585 59.889a323.187 323.187 0 0 0 117.834 21.724c41.133 0 80.168-7.497 115.92-22.235 36.116-14.908 68.311-35.354 95.399-60.741a292.72 292.72 0 0 0 65.027-89.11c15.779-33.48 23.805-69.942 23.805-108.278a255.969 255.969 0 0 0-23.896-109.13 293.21 293.21 0 0 0-65.757-90.472 317.217 317.217 0 0 0-96.22-61.423c-35.66-14.824-74.239-22.32-114.278-22.32Z"
    style="fill:url(#a)" />
</svg>