<svg width="881" height="839" fill="none" xmlns="http://www.w3.org/2000/svg">
  <path
    d="M405.651 501.464c-8.165 1.072-10.415-9.074-16.057-7.061-5.253 1.876-5.582 10.717-12.652 14.633-4.888 2.711-13.423.182-14.829-4.008-2.392-7.129 15.08-9.484 14.916-23.989-.073-6.591-1.839-13.775.073-17.837 3.327-7.047 20-8.754 24.282-2.917 3.573 4.88-3.031 12.931.707 16.664 3.579 3.574 11.31-2.149 14.464.972 4.277 4.236-2.232 22.402-10.904 23.543Z"
    stroke="#27A09E" stroke-opacity=".4" stroke-width="2" stroke-miterlimit="10" />
  <path
    d="M372.729 530.57c-13.145 6.449-28.325 9.845-37.057 6.034-8.512-10.005 15.373-16.427 12.78-45.318-1.606-17.879 8.741-32.699 13.387-52.366 4.373-18.499 33.178-27.486 42.329-20.927 9.179 2.228 12.474 14.752 22.812 26.413 9.384 10.58 16.997 7.755 25.806 16.505 10.626 10.548 5.842 36.308-6.125 41.835-10.749 4.962-20.11 4.113-37.641 8.631-16.4 4.218-18.924 10.676-36.291 19.193Z"
    stroke="#27A09E" stroke-opacity=".4" stroke-width="2" stroke-miterlimit="10" />
  <path
    d="M355.865 566.741c-21.069 10.959-52.539 10.142-61.462-2.569-14.793-21.082 43.219-32.931 40.389-86.629-1.506-28.527 3.829-55.766 11.862-80.746 9.74-30.293 66.907-39.869 84.585-24.022 14.089 12.634 5.007 38.212 21.347 55.743 15.244 16.235 37.02 2.574 50.9 16.345 17.668 17.522.867 75.661-26.715 82.699-25.263 6.445-37.988-14.172-64.378-6.276-24.638 7.362-27.477 30.348-56.528 45.455Z"
    stroke="#27A09E" stroke-opacity=".4" stroke-width="2" stroke-miterlimit="10" />
  <path
    d="M339.004 602.913c-29.001 15.464-75.191 8.896-85.867-11.169-18.206-34.236 70.888-49.449 67.998-127.94-1.442-39.188-.899-78.724 10.338-109.126 15.491-41.918 102.075-53.899 126.836-27.111 20 21.629-2.488 61.694 19.882 85.072 21.077 21.918 57.043-2.606 75.999 16.19 24.715 24.496-4.222 114.995-47.304 123.562-39.896 7.933-55.866-32.46-91.116-21.182-32.881 10.498-36.044 49.992-76.766 71.704Z"
    stroke="#27A09E" stroke-opacity=".4" stroke-width="2" stroke-miterlimit="10" />
  <path
    d="M322.14 639.085c-36.957 19.909-97.743 7.8-110.272-19.773-21.466-47.249 98.487-65.971 95.607-169.246-1.392-49.86-5.578-101.623 8.809-137.502 21.429-53.438 137.274-67.834 169.091-30.206 25.975 30.713-9.982 85.178 18.417 114.398 26.91 27.595 77.071-7.782 101.097 16.029 31.758 31.471-9.338 154.317-67.888 164.422-54.561 9.416-73.744-50.745-117.853-36.094-41.124 13.652-44.656 69.573-97.008 97.972Z"
    stroke="#27A09E" stroke-opacity=".4" stroke-width="2" stroke-miterlimit="10" />
  <path
    d="M305.275 675.256c-44.885 24.419-120.263 6.769-134.677-28.376-24.683-60.193 126.06-82.498 123.216-210.557-1.342-60.531-10.237-124.489 7.285-165.882 27.467-64.895 172.482-81.727 211.347-33.301 31.967 39.832-17.477 108.661 16.951 143.728 32.748 33.273 97.095-12.963 126.197 15.87 38.8 38.44-14.46 193.633-88.478 205.285-69.23 10.899-91.623-69.029-144.595-51.001-49.362 16.797-53.214 89.24-117.246 124.234Z"
    stroke="#27A09E" stroke-opacity=".4" stroke-width="2" stroke-miterlimit="10" />
  <path
    d="M288.41 711.428c-52.813 28.923-142.774 5.769-159.077-36.975-27.888-73.101 153.614-99.026 150.825-251.868-1.301-71.207-14.889-147.338 5.755-194.263 33.575-76.309 207.691-95.598 253.598-36.391 37.97 48.97-24.971 132.144 15.487 173.058 38.581 38.951 117.122-18.143 151.29 15.71 45.848 45.414-19.585 232.949-109.067 246.149-83.904 12.378-109.5-87.318-171.332-65.908-57.596 19.937-61.767 108.894-137.479 150.488Z"
    stroke="#27A09E" stroke-opacity=".4" stroke-width="2" stroke-miterlimit="10" />
  <path
    d="M271.55 747.599c-60.736 33.433-165.271 4.788-183.482-45.578-31.092-85.981 181.159-115.553 178.434-293.179-1.255-81.883-19.535-170.168 4.231-222.639 39.722-87.697 242.899-109.464 295.853-39.485 43.977 58.116-32.47 155.631 14.017 202.387 44.415 44.634 137.146-23.319 176.39 15.555 52.89 52.388-24.693 272.435-129.657 287.013-98.56 14.016-127.378-105.603-198.069-80.815-65.835 23.077-70.335 128.552-157.717 176.741Z"
    stroke="#27A09E" stroke-opacity=".4" stroke-width="2" stroke-miterlimit="10" />
  <path
    d="M254.685 783.766c-68.664 37.942-187.768 3.82-207.887-54.177-34.291-98.853 208.49-132.085 206.043-334.49-1.31-92.558-24.181-192.994 2.707-251.019 45.898-99.062 278.108-123.321 338.109-42.58 49.988 67.268-39.964 179.114 12.552 231.717 50.252 50.312 157.169-28.499 201.488 15.395 59.937 59.363-29.837 311.66-150.246 327.876-113.252 15.414-145.256-123.887-224.806-95.721-74.078 26.222-78.898 148.219-177.96 202.999Z"
    stroke="#27A09E" stroke-opacity=".4" stroke-width="2" stroke-miterlimit="10" />
  <path
    d="M687.557 701.309c-127.94 16.81-163.135-142.176-251.544-110.628-82.312 29.366-87.451 167.882-198.193 229.261-76.588 42.452-210.265 2.862-232.292-62.781-37.49-111.709 236.231-148.616 233.652-375.796-1.173-103.238-28.823-215.81 1.178-279.395C292.449-8.448 553.669-35.208 620.718 56.291c55.999 76.424-47.459 202.598 11.087 261.043 56.085 55.989 177.197-33.68 226.582 15.235 66.98 66.337-34.981 350.889-170.83 368.74Z"
    stroke="#27A09E" stroke-opacity=".4" stroke-width="2" stroke-miterlimit="10" />
</svg>