<svg width="1731" height="1731" fill="none" xmlns="http://www.w3.org/2000/svg">
  <path
    d="M793.287 1010.7c-15.473 2.03-19.737-17.194-30.427-13.38-9.954 3.55-10.577 20.31-23.974 27.73-9.263 5.14-25.436.34-28.1-7.6-4.532-13.5 28.576-17.968 28.264-45.453-.138-12.489-3.485-26.102.139-33.8 6.305-13.354 37.899-16.588 46.011-5.526 6.772 9.245-5.743 24.502 1.341 31.576 6.78 6.772 21.431-4.073 27.408 1.842 8.104 8.027-4.23 42.451-20.662 44.611Z"
    stroke="#27A09E" stroke-opacity=".4" stroke-width="2" stroke-miterlimit="10" />
  <path
    d="M730.903 1065.85c-24.909 12.22-53.674 18.66-70.22 11.44-16.129-18.96 29.13-31.13 24.217-85.877-3.044-33.877 16.563-61.96 25.367-99.227 8.286-35.054 62.868-52.083 80.209-39.655 17.393 4.221 23.637 27.953 43.226 50.05 17.782 20.048 32.209 14.695 48.901 31.274 20.134 19.988 11.07 68.805-11.607 79.275-20.368 9.4-38.106 7.79-71.326 16.36-31.076 7.99-35.858 20.22-68.767 36.36Z"
    stroke="#27A09E" stroke-opacity=".4" stroke-width="2" stroke-miterlimit="10" />
  <path
    d="M698.946 1134.39c-39.923 20.77-99.557 19.22-116.465-4.86-28.031-39.95 81.895-62.41 76.533-164.158-2.854-54.055 7.257-105.671 22.478-153.006 18.457-57.402 126.783-75.547 160.28-45.519 26.698 23.94 9.487 72.408 40.45 105.628 28.887 30.764 70.15 4.878 96.451 30.971 33.477 33.203 1.643 143.374-50.621 156.704-47.871 12.22-71.984-26.85-121.991-11.89-46.686 13.95-52.066 57.51-107.115 86.13Z"
    stroke="#27A09E" stroke-opacity=".4" stroke-width="2" stroke-miterlimit="10" />
  <path
    d="M666.997 1202.94c-54.954 29.3-142.48 16.85-162.71-21.17-34.5-64.87 134.325-93.7 128.85-242.431-2.733-74.259-1.704-149.175 19.59-206.784 29.354-79.431 193.421-102.134 240.341-51.374 37.899 40.987-4.714 116.906 37.674 161.205 39.94 41.531 108.088-4.939 144.008 30.677 46.84 46.418-8 217.907-89.633 234.137-75.599 15.03-105.861-61.51-172.656-40.14-62.306 19.9-68.299 94.73-145.464 135.88Z"
    stroke="#27A09E" stroke-opacity=".4" stroke-width="2" stroke-miterlimit="10" />
  <path
    d="M635.04 1271.48c-70.029 37.72-185.214 14.78-208.955-37.47-40.675-89.53 186.624-125.01 181.166-320.704-2.638-94.479-10.569-192.565 16.692-260.553 40.606-101.26 260.121-128.539 320.412-57.238 49.22 58.198-18.915 161.403 34.898 216.773 50.997 52.291 146.047-14.746 191.567 30.375 60.18 59.633-17.69 292.417-128.64 311.567-103.386 17.84-139.737-96.16-223.319-68.4-77.925 25.87-84.62 131.84-183.821 185.65Z"
    stroke="#27A09E" stroke-opacity=".4" stroke-width="2" stroke-miterlimit="10" />
  <path
    d="M603.083 1340.02c-85.053 46.27-227.887 12.83-255.2-53.77-46.773-114.06 238.871-156.33 233.483-398.986-2.543-114.7-19.4-235.895 13.803-314.331 52.048-122.969 326.838-154.865 400.482-63.102 60.579 75.478-33.116 205.902 32.119 272.351 62.06 63.049 183.99-24.563 239.13 30.071 73.53 72.841-27.4 366.917-167.65 388.997-131.188 20.65-173.619-130.8-273.997-96.64-93.537 31.83-100.837 169.1-222.17 235.41Z"
    stroke="#27A09E" stroke-opacity=".4" stroke-width="2" stroke-miterlimit="10" />
  <path
    d="M571.125 1408.56c-100.075 54.81-270.542 10.93-301.436-70.06-52.844-138.52 291.084-187.65 285.799-477.268-2.465-134.93-28.212-279.192 10.906-368.11 63.621-144.599 393.555-181.149 480.546-68.957 71.95 92.793-47.319 250.4 29.34 327.928 73.11 73.808 221.94-34.379 286.68 29.769 86.88 86.055-37.11 441.418-206.67 466.428-158.987 23.46-207.49-165.46-324.655-124.89-109.139 37.78-117.044 206.35-260.51 285.16Z"
    stroke="#27A09E" stroke-opacity=".4" stroke-width="2" stroke-miterlimit="10" />
  <path
    d="M539.177 1477.1c-115.09 63.36-313.173 9.08-347.681-86.36-58.916-162.93 343.279-218.97 338.115-555.55-2.378-155.159-37.017-322.453 8.018-421.879 75.27-166.178 460.271-207.424 560.611-74.821 83.33 110.125-61.52 294.907 26.56 383.505 84.16 84.576 259.88-44.187 334.24 29.475 100.23 99.271-46.79 516.24-245.68 543.86-186.76 26.56-241.372-200.11-375.324-153.13-124.75 43.72-133.278 243.59-298.859 334.9Z"
    stroke="#27A09E" stroke-opacity=".4" stroke-width="2" stroke-miterlimit="10" />
  <path
    d="M507.22 1545.64c-130.113 71.89-355.803 7.23-393.927-102.67-64.978-187.31 395.068-250.28 390.432-633.822-2.482-175.388-45.821-365.705 5.129-475.657 86.972-187.713 526.986-233.681 640.686-80.684 94.72 127.465-75.73 339.404 23.78 439.081 95.23 95.336 297.82-54.003 381.8 29.173 113.58 112.486-56.53 590.569-284.7 621.289-214.6 29.21-275.245-234.75-425.984-181.38-140.37 49.69-149.503 280.86-337.216 384.67Z"
    stroke="#27A09E" stroke-opacity=".4" stroke-width="2" stroke-miterlimit="10" />
  <path
    d="M1327.47 1389.39c-242.43 31.85-309.12-269.41-476.652-209.63-155.972 55.64-165.71 318.12-375.556 434.43-145.126 80.44-398.432 5.42-440.171-118.97-71.041-211.68 447.635-281.61 442.748-712.096-2.222-195.626-54.617-408.94 2.232-529.426C578.78 44.466 1073.77-6.242 1200.82 167.14c106.11 144.816-89.93 383.903 21.01 494.651 106.27 106.094 335.77-63.82 429.35 28.869 126.92 125.702-66.29 664.9-323.71 698.73Z"
    stroke="#27A09E" stroke-opacity=".4" stroke-width="2" stroke-miterlimit="10" />
</svg>