<svg width="1030" height="259" fill="none" xmlns="http://www.w3.org/2000/svg">
  <path
    d="M88.984 254.977c-10.674 0-21.634-1.494-33.534-4.564-8.728-2.251-19.731-7.714-32.725-16.206-7.963-5.198-12.884-13.383-13.54-22.427-.657-9.004 3.04-17.701 10.127-23.819l18.922-16.33 3.347 4.032c1.313 1.493 18.222 16.636 33.47 20.319l2.121.512c4.44 1.084 8.269 2.046 11.813 2.046 3.696 0 7.437-.409 11.134-1.228 3.566-.777 6.847-2.026 9.756-3.663 2.735-1.555 4.922-3.56 6.694-6.138 1.619-2.374 2.45-5.505 2.45-9.29 0-.942-.459-2.17-1.313-3.581-1.006-1.617-2.931-3.52-5.709-5.648-2.997-2.272-7.262-4.768-12.71-7.428-5.6-2.722-12.73-5.668-21.196-8.758-10.216-3.643-19.885-7.633-28.678-11.869-9.078-4.358-17.063-9.576-23.757-15.49-6.847-6.037-12.206-13.015-15.968-20.77C5.903 96.901 4 87.816 4 77.707c0-10.293 2.078-20.074 6.19-29.078 4.113-9.003 10.041-16.943 17.654-23.573C35.413 18.467 44.6 13.25 55.188 9.546 65.71 5.861 77.434 4 90.035 4c6.825 0 14.196.839 21.918 2.476 5.666 1.207 11.55 2.865 17.522 4.952 11.747 4.093 20.432 12.932 23.8 24.269 3.391 11.418.81 23.287-7.065 32.536l-8.86 10.395-3.85-2.456c-.7-.45-1.575-1.084-2.668-1.903-5.972-4.42-18.397-13.607-39.047-13.853h-.788c-8.444 0-15.16 1.596-19.95 4.727-4.331 2.844-6.366 6.732-6.366 12.216 0 2.149.678 4.052 2.079 5.832 1.684 2.128 4.046 4.154 7.043 5.975 3.216 1.965 7.022 3.827 11.31 5.525 4.44 1.76 9.187 3.418 14.11 4.952 14.852 5.321 27.365 10.723 37.449 16.125 10.26 5.504 18.681 11.48 25.025 17.762 6.497 6.445 11.178 13.505 13.935 20.974 2.712 7.346 4.068 15.429 4.068 24.044 0 10.559-2.34 20.667-6.978 30.039-4.594 9.331-11.025 17.516-19.097 24.351-8.028 6.794-17.697 12.216-28.722 16.125-10.981 3.929-23.078 5.914-35.919 5.914ZM425.773 252.626c-20.257 0-38.654-11.172-46.879-28.484l-52.281-109.783a72227.09 72227.09 0 0 0-51.647 109.599c-8.181 17.414-26.622 28.668-46.966 28.668h-32.397L312.504 4.044h3.281c14.962 0 28.547 8.247 34.628 21.036l108.391 227.546h-33.031ZM705.642 254.98c-15.662 0-30.669-6.241-41.147-17.148L551.904 120.764v80.46c0 28.341-24.653 51.382-54.928 51.382h-5.031V4.024h5.031c15.444 0 30.231 6.16 40.556 16.902l113.204 117.661V57.78c0-28.341 24.631-51.382 54.928-51.382h5.031V255h-5.053v-.02ZM894.074 254.976c-16.494 0-32.813-2.968-48.519-8.799-15.706-5.832-29.903-14.161-42.241-24.76-12.359-10.621-22.444-23.655-29.903-38.696-7.503-15.101-11.309-32.229-11.309-50.87 0-16.125 3.347-31.86 9.953-46.799a125.064 125.064 0 0 1 27.628-39.534c11.725-11.295 25.725-20.463 41.672-27.236 16.034-6.793 33.753-10.231 52.719-10.231 16.712 0 33.25 3.07 49.109 9.147 15.816 6.057 29.991 14.692 42.088 25.66 12.097 10.968 21.939 24.126 29.289 39.145 7.4 15.102 11.14 31.881 11.14 49.827 0 15.879-3.29 31.39-9.78 46.103-6.5 14.692-15.64 27.932-27.215 39.33-11.594 11.438-25.637 20.667-41.737 27.44-16.144 6.835-33.929 10.273-52.894 10.273Zm0-191.144c-10.106 0-19.644 1.801-28.372 5.362-8.772 3.58-16.516 8.533-23.013 14.712-6.54 6.221-11.79 13.547-15.618 21.752-3.807 8.145-5.732 16.964-5.732 26.213 0 9.249 1.925 18.048 5.732 26.193 3.828 8.226 9.056 15.47 15.575 21.568 6.496 6.077 14.284 10.906 23.165 14.385 8.86 3.458 18.375 5.218 28.263 5.218 9.865 0 19.228-1.801 27.803-5.341 8.662-3.581 16.384-8.492 22.881-14.59a70.303 70.303 0 0 0 15.597-21.404c3.785-8.042 5.71-16.8 5.71-26.008 0-9.229-1.925-18.048-5.732-26.213a70.413 70.413 0 0 0-15.772-21.732c-6.628-6.2-14.393-11.172-23.078-14.753-8.553-3.56-17.806-5.362-27.409-5.362Z"
    stroke="#fff" stroke-width="7" />
  <path
    d="M893.898 161.973c-17.959 0-32.55-13.67-32.55-30.449 0-16.8 14.613-30.449 32.55-30.449 17.96 0 32.55 13.669 32.55 30.449 0 16.8-14.59 30.449-32.55 30.449Z"
    stroke="#fff" stroke-width="7" />
</svg>