<svg width="33" height="33" xmlns="http://www.w3.org/2000/svg" viewBox="0 0 33 20.9">
  <defs>
    <style>
      .cls-1 {
        fill: #fff
      }
    </style>
  </defs>
  <path className="cls-1"
    d="M13.318 15.393a3.552 3.552 0 0 0 3.123-3.894c0-3.662-2.555-5.45-5.792-5.45H0v20.467h10.65s6.5.205 6.5-6.04c0 0 .284-5.083-3.832-5.083ZM4.692 9.688h5.958s1.447 0 1.447 2.129-.851 2.438-1.817 2.438H4.692Zm5.683 13.19H4.692V17.41h5.957s2.158-.027 2.158 2.811c0 2.367-1.578 2.635-2.432 2.659ZM29.863 7.256h-8.444v2.52h8.444ZM25.821 11.258c-7.87 0-7.863 7.863-7.863 7.863s-.54 7.823 7.863 7.823c0 0 7.004.4 7.004-5.443h-3.602s.12 2.202-3.281 2.202a3.329 3.329 0 0 1-3.602-3.562h10.604s1.16-8.883-7.123-8.883Zm3.201 6.152H22.3a3.66 3.66 0 0 1 3.6-3.155 3.046 3.046 0 0 1 3.122 3.155Z"
    transform="translate(0 -6.05)" />
</svg>