<svg width="171" height="160" fill="none" xmlns="http://www.w3.org/2000/svg">
  <path
    d="m24.103 65.094-12.888-1.593 9.764 7.248-.301 2.094-11.185 4.58L22.1 79.01l-.627 4.362L0 80.67l.552-3.846 14.426-5.84-12.28-9.082.549-3.816 21.48 2.646-.624 4.362ZM27.502 53.902a11.37 11.37 0 0 1-5.624 1.456c-1.986-.005-3.887-.524-5.706-1.551-1.818-1.028-3.192-2.364-4.12-4.005-.93-1.64-1.342-3.42-1.236-5.334.103-1.914.736-3.771 1.9-5.573 1.163-1.8 2.625-3.185 4.383-4.153a11.53 11.53 0 0 1 5.625-1.455c1.99-.002 3.896.51 5.715 1.538 1.82 1.028 3.19 2.367 4.113 4.017a9.673 9.673 0 0 1 1.236 5.334c-.098 1.907-.73 3.76-1.894 5.56-1.164 1.802-2.626 3.19-4.392 4.166Zm1.775-9.434a5.618 5.618 0 0 0-.85-3.135c-.597-.98-1.467-1.794-2.617-2.443-1.147-.649-2.325-.992-3.529-1.031a6.69 6.69 0 0 0-3.363.754c-1.037.541-1.886 1.324-2.55 2.348-.661 1.024-1.008 2.092-1.038 3.203a5.633 5.633 0 0 0 .848 3.135c.597.98 1.47 1.794 2.617 2.443 1.148.649 2.325.992 3.53 1.031a6.69 6.69 0 0 0 3.363-.754c1.036-.541 1.886-1.324 2.547-2.348.665-1.026 1.012-2.092 1.042-3.203ZM41.645 11.362l6.297 21.285-3.855 2.908-20.875-10.292 4.217-3.18 14.846 7.4-4.507-15.196 3.877-2.925ZM70.06 18.412l1.43 3.518-15.679 5.58-7.705-18.942L63.41 3.122l1.43 3.518-10.646 3.79 1.674 4.113 9.402-3.347 1.387 3.41-9.403 3.348 1.783 4.383 11.023-3.925ZM101.332 22.524l1.685-12.058-7.733 9.143-2.24-.279-4.915-10.455-1.678 11.795-4.664-.58L84.647 0l4.112.511 6.261 13.486 9.693-11.5 4.081.508-2.798 20.1-4.664-.58ZM113.307 25.69c-1.046-1.648-1.568-3.402-1.564-5.26.003-1.858.554-3.636 1.65-5.34 1.097-1.703 2.523-2.99 4.276-3.86 1.754-.871 3.653-1.259 5.699-1.166 2.047.096 4.035.686 5.96 1.772 1.926 1.085 3.409 2.452 4.445 4.094 1.036 1.645 1.558 3.397 1.564 5.26.006 1.861-.541 3.645-1.637 5.348-1.097 1.702-2.527 2.987-4.289 3.853-1.762.865-3.663 1.255-5.7 1.165-2.038-.09-4.021-.677-5.946-1.763-1.928-1.087-3.413-2.453-4.458-4.103Zm10.086 1.646a6.68 6.68 0 0 0 3.35-.798c1.048-.56 1.916-1.377 2.608-2.45.691-1.076 1.059-2.175 1.098-3.303a5.624 5.624 0 0 0-.81-3.145c-.58-.97-1.419-1.763-2.513-2.381-1.097-.619-2.237-.94-3.424-.968a6.69 6.69 0 0 0-3.352.798c-1.046.56-1.916 1.377-2.608 2.452-.691 1.075-1.057 2.175-1.097 3.303a5.617 5.617 0 0 0 .811 3.145c.58.97 1.417 1.762 2.513 2.381 1.095.617 2.237.94 3.424.966ZM158.798 38.858l-22.745 5.92-3.113-3.602 10.972-19.542 3.405 3.94-7.889 13.897 16.238-4.239 3.132 3.626ZM151.3 65.452l-3.759 1.343-5.988-14.66 20.241-7.233 5.843 14.309-3.759 1.343-4.065-9.953-4.394 1.57 3.59 8.79-3.644 1.303-3.59-8.79-4.684 1.674 4.209 10.304ZM146.946 94.715l12.892 1.56-9.785-7.224.296-2.095 11.17-4.61-12.614-1.554.615-4.363L171 79.08l-.543 3.846-14.408 5.874 12.304 9.053-.539 3.818-21.488-2.591.62-4.364ZM143.581 105.912a11.368 11.368 0 0 1 5.618-1.47c1.986 0 3.889.513 5.712 1.537 1.822 1.024 3.199 2.355 4.132 3.994.932 1.64 1.351 3.416 1.253 5.332-.098 1.914-.726 3.774-1.885 5.579-1.156 1.803-2.615 3.192-4.371 4.165a11.545 11.545 0 0 1-5.619 1.47c-1.99.007-3.896-.501-5.718-1.525s-3.198-2.36-4.125-4.006a9.71 9.71 0 0 1-1.253-5.332c.092-1.907.718-3.761 1.877-5.565 1.158-1.806 2.617-3.199 4.379-4.179Zm-1.747 9.437a5.635 5.635 0 0 0 .857 3.134c.599.978 1.474 1.791 2.625 2.438 1.149.645 2.327.987 3.533 1.022a6.675 6.675 0 0 0 3.36-.763c1.036-.545 1.882-1.329 2.541-2.355.66-1.026 1.003-2.094 1.029-3.204a5.627 5.627 0 0 0-.857-3.134c-.599-.978-1.474-1.791-2.625-2.436-1.149-.645-2.327-.987-3.533-1.022a6.658 6.658 0 0 0-3.359.763c-1.037.544-1.883 1.329-2.542 2.355-.658 1.024-1.001 2.092-1.029 3.202ZM129.562 148.49l-6.358-21.27 3.848-2.917 20.906 10.239-4.208 3.19-14.866-7.362 4.552 15.185-3.874 2.935ZM101.131 141.51l-1.442-3.515 15.662-5.623 7.761 18.923-15.287 5.487-1.441-3.514 10.635-3.818-1.685-4.109-9.391 3.372-1.398-3.405 9.391-3.372-1.796-4.378-11.009 3.952ZM69.832 137.475l-1.653 12.062 7.709-9.162 2.24.273 4.942 10.443 1.647-11.8 4.665.569-2.803 20.097-4.114-.502-6.299-13.472-9.66 11.522-4.081-.499 2.743-20.104 4.664.573ZM57.861 134.343c1.052 1.646 1.577 3.398 1.58 5.254.001 1.858-.544 3.638-1.636 5.344-1.091 1.707-2.514 2.997-4.264 3.871-1.75.876-3.65 1.267-5.698 1.179-2.047-.09-4.036-.675-5.966-1.755-1.93-1.081-3.416-2.443-4.458-4.084-1.042-1.641-1.568-3.393-1.579-5.255-.011-1.861.531-3.646 1.622-5.351 1.093-1.706 2.518-2.993 4.278-3.863 1.76-.871 3.659-1.264 5.697-1.18 2.04.085 4.023.668 5.953 1.749 1.93 1.08 3.42 2.445 4.471 4.091Zm-10.094-1.622a6.663 6.663 0 0 0-3.348.808c-1.046.562-1.912 1.38-2.602 2.457s-1.052 2.178-1.087 3.304a5.629 5.629 0 0 0 .82 3.143c.583.968 1.422 1.759 2.52 2.374 1.099.616 2.24.935 3.428.959a6.662 6.662 0 0 0 3.348-.807c1.046-.562 1.913-1.382 2.602-2.457.69-1.077 1.052-2.179 1.087-3.305a5.633 5.633 0 0 0-.82-3.143c-.581-.967-1.422-1.759-2.52-2.374-1.097-.615-2.239-.934-3.428-.959ZM12.327 121.284l22.73-5.975 3.123 3.596-10.917 19.568-3.416-3.933 7.851-13.917-16.227 4.278-3.144-3.617ZM19.749 94.674l3.755-1.352 6.03 14.644-20.218 7.284-5.885-14.292 3.755-1.352 4.095 9.942 4.39-1.581-3.616-8.78 3.639-1.312 3.616 8.781 4.678-1.685-4.24-10.297Z"
    fill="#fff" />
</svg>