<svg width="63" height="98" fill="none" xmlns="http://www.w3.org/2000/svg">
  <path
    d="M26.061 48.512c0 .675 0 1.739.676 2.952 0 1.214.4 1.74.4 3.09 1.339 1.74 2.415 3.353 3.628 5.768a252.02 252.02 0 0 1 5.23 8.857c.675 1.076 1.213 2.277 2.277 3.353 0 0 0 .675.675 1.339v1.739c.676.4.676 1.739.676 2.276.4 0 1.076-.537 1.076-.537 3.49-2.415 6.443-5.368 9.395-8.858 1.74-1.739 3.49-4.028 4.154-7.106 1.076-3.49.4-6.443-1.74-8.72-.675-.538-1.213-1.213-1.876-1.739-2.414-1.076-4.566-2.815-6.98-3.49h-4.03c-.675.675-1.876.675-2.952.675 0-1.876 0-1.876 1.076-2.414 2.953-1.214 4.029-1.214 6.981-1.214 3.09 0 5.367 1.214 8.182 2.277 1.339.676 2.415 1.339 3.09 1.74 1.74 1.338 3.353 2.414 4.692 4.69 1.076 2.415 1.739 4.692 1.739 7.782 0 2.815 0 5.768-1.74 8.182 0 1.076-.675 2.277-1.738 2.815-2.953 4.691-7.106 8.32-11.135 11.134-1.739.676-3.628 1.74-4.691 2.953-1.339.675-1.74 1.076-2.415 1.739 0 1.076 0 2.414.676 3.49.4 7.52-5.23 7.92-7.782.538-1.076 0-1.739-.538-2.277-1.076H29.59c-1.739.538-3.49.538-4.691.538-5.905.538-10.997-.538-15.288-4.566-1.076-.676-1.739-1.339-2.815-2.415-2.952-1.876-4.691-4.691-5.367-7.644-.4-1.075-.4-2.814-.4-4.153-.676-4.692.4-8.72 1.739-13.411 1.076-2.415 2.277-4.567 4.028-6.443 1.076-1.74 2.415-3.49 3.49-5.23.538-.675 1.214-1.213 1.214-2.414 0-2.953.538-5.768.538-8.72.538-.676.538-1.74.538-2.953.676-.538.676-1.213.676-1.739.675-3.49 1.739-7.106 3.49-10.596 1.213-3.49 2.953-6.443 4.692-9.396 1.739-2.151 4.028-4.566 7.105-5.767 3.353-2.415 7.52-4.154 11.535-4.691 2.415-.538 4.692 0 7.106 1.876 2.415 1.614 3.49 4.029 4.692 6.443.675 1.076.675 2.815 0 4.566-.538 2.277-.538 4.692-1.74 6.981-1.213 2.953-1.876 5.905-4.028 8.182 0 .676-.675 1.214-.675 1.74-.676 1.876-1.74 2.952-2.953 4.29-1.739 1.74-3.49 3.353-5.767 5.092-.676 0-1.339 1.339-1.74 1.74-1.738 1.738-4.153 2.414-6.442 3.627-.676 0-1.739.538-3.09 1.076.625.676.625 1.351.625 1.752Zm2.415 32.865c-1.339-1.74-2.415-2.953-3.628-4.692-1.74-2.414-3.49-5.229-5.23-7.518-2.276-3.09-4.028-6.443-5.367-10.059-.4 0-.4-.538-1.075-1.213-1.214.675-1.74 1.213-2.415 2.414-.538.676-1.201 1.739-1.614 2.415-1.339 1.739-1.739 3.352-1.739 5.767 0 2.415.4 4.692 1.076 7.106 1.076 1.739 2.277 3.353 3.49 4.692 2.277 3.49 5.905 4.566 10.059 4.566 1.739-.538 2.815-.538 4.691-1.076.4 0 1.74 0 2.152-.676.013-.65-.4-1.05-.4-1.726Zm3.353-65.068c-.538.676-1.076 1.74-1.076 2.415-.538 1.739-1.877 3.628-1.877 5.23 0 1.213-.4 1.738-.4 2.952-.676 1.876-1.339 3.49-1.339 5.23.676-.539.676-.539 1.339-.539 2.277-2.414 5.092-4.691 8.182-7.644.538-.538 1.076-1.213 1.614-1.613.675-1.877 1.739-3.09 3.09-4.83.4-1.213.4-2.277 1.076-3.49 0-1.74-.676-2.953-1.74-4.154-4.703 1.214-7.118 3.629-8.87 6.443Z"
    fill="#FFBE00" />
</svg>